<svg height="192" viewBox="0 0 192 192" width="192" xmlns="http://www.w3.org/2000/svg"><path d="m0 0h192v192h-192z" fill="none"/><circle cx="96" cy="48.78" fill="none" r="26.78" stroke="#000" stroke-width="12"/><path d="m30.06 121c8.71-7.89 28.69-20.84 65.94-20.84s57.23 12.95 65.94 20.84c3.92 3.54 5.48 8.76 5.48 14v23.13a17.85 17.85 0 0 1 -17.85 17.87h-107.14a17.85 17.85 0 0 1 -17.85-17.86v-23.14c0-5.28 1.56-10.5 5.48-14zm65.94 41.61h53.57a4.47 4.47 0 0 0 4.46-4.47v-23.14c0-2.93-.86-3.93-1.07-4.13-6.36-5.75-23.16-17.37-57-17.37s-50.6 11.62-57 17.37c-.21.2-1.07 1.2-1.07 4.13v23.13a4.47 4.47 0 0 0 4.46 4.47z" fill-rule="evenodd"/></svg>